HIERARCHY
ROOT root
{
	OFFSET	0	13.1	24.9
	CHANNELS 6  Xposition Yposition Zposition Xrotation Yrotation Zrotation
	JOINT spine_1
	{
		OFFSET	0	9.99999	0
		CHANNELS 3  Xrotation Yrotation Zrotation
		JOINT spine_2
		{
			OFFSET	0	112	-10
			CHANNELS 3  Xrotation Yrotation Zrotation
			JOINT spine_3
			{
				OFFSET	0	206.5	19.3
				CHANNELS 3  Xrotation Yrotation Zrotation
				JOINT spine_4
				{
					OFFSET	0	110.4	14.6
					CHANNELS 3  Xrotation Yrotation Zrotation
					JOINT neck_1
					{
						OFFSET	0	71.8	-50.3
						CHANNELS 3  Xrotation Yrotation Zrotation
						JOINT neck_2
						{
							OFFSET	0	86.2	-25.8
							CHANNELS 3  Xrotation Yrotation Zrotation
							JOINT head_ee
							{
								OFFSET	0	179.8	-8.7
								CHANNELS 3  Xrotation Yrotation Zrotation
								End Site
								{
									OFFSET	1	0	0
								}
							}
						}
					}
					JOINT left_clavicle
					{
						OFFSET	-43.2	22.4	-70.8
						CHANNELS 3  Xrotation Yrotation Zrotation
						JOINT left_shoulder
						{
							OFFSET	-93.9	-5.79999	48.7
							CHANNELS 3  Xrotation Yrotation Zrotation
							JOINT left_elbow
							{
								OFFSET	-291.4	-30.8	15.2
								CHANNELS 3  Xrotation Yrotation Zrotation
								JOINT left_lowarm_twist
								{
									OFFSET	-110.7	-3.89999	13.6
									CHANNELS 3  Xrotation Yrotation Zrotation
									JOINT left_hand
									{
										OFFSET	-110.7	-3.89999	13.6
										CHANNELS 3  Xrotation Yrotation Zrotation
										JOINT left_ee
										{
											OFFSET	-80.8	-5.10001	12.1
											CHANNELS 3  Xrotation Yrotation Zrotation
											End Site
											{
												OFFSET	1	0	0
											}
										}
									}
								}
							}
						}
					}
					JOINT right_clavicle
					{
						OFFSET	43.2	22.4	-70.8
						CHANNELS 3  Xrotation Yrotation Zrotation
						JOINT right_shoulder
						{
							OFFSET	93.9	-5.79999	48.7
							CHANNELS 3  Xrotation Yrotation Zrotation
							JOINT right_elbow
							{
								OFFSET	291.4	-30.8	15.2
								CHANNELS 3  Xrotation Yrotation Zrotation
								JOINT right_lowarm_twist
								{
									OFFSET	110.7	-3.89999	13.6
									CHANNELS 3  Xrotation Yrotation Zrotation
									JOINT right_hand
									{
										OFFSET	110.7	-3.89999	13.6
										CHANNELS 3  Xrotation Yrotation Zrotation
										JOINT right_ee
										{
											OFFSET	80.8	-5.10001	12.1
											CHANNELS 3  Xrotation Yrotation Zrotation
											End Site
											{
												OFFSET	1	0	0
											}
										}
									}
								}
							}
						}
					}
				}
			}
		}
	}
	JOINT left_hip
	{
		OFFSET	-82.8	-127.5	0.300001
		CHANNELS 3  Xrotation Yrotation Zrotation
		JOINT left_knee
		{
			OFFSET	-28.2	-396.7	2.2
			CHANNELS 3  Xrotation Yrotation Zrotation
			JOINT left_ankle
			{
				OFFSET	-11.7	-411.3	35.4
				CHANNELS 3  Xrotation Yrotation Zrotation
				JOINT left_toes
				{
					OFFSET	0	-60	-88.6
					CHANNELS 3  Xrotation Yrotation Zrotation
					JOINT left_foot_ee
					{
						OFFSET	-22.5	-16.5	-42.2
						CHANNELS 3  Xrotation Yrotation Zrotation
						End Site
						{
							OFFSET	1	0	0
						}
					}
				}
			}
		}
	}
	JOINT right_hip
	{
		OFFSET	82.8	-127.5	0.300001
		CHANNELS 3  Xrotation Yrotation Zrotation
		JOINT right_knee
		{
			OFFSET	28.2	-396.7	2.2
			CHANNELS 3  Xrotation Yrotation Zrotation
			JOINT right_ankle
			{
				OFFSET	11.7	-411.3	35.4
				CHANNELS 3  Xrotation Yrotation Zrotation
				JOINT right_toes
				{
					OFFSET	0	-60	-88.6
					CHANNELS 3  Xrotation Yrotation Zrotation
					JOINT right_foot_ee
					{
						OFFSET	22.5	-16.5	-42.2
						CHANNELS 3  Xrotation Yrotation Zrotation
						End Site
						{
							OFFSET	1	0	0
						}
					}
				}
			}
		}
	}
}
MOTION
Frames: 6
Frame Time: 0.02
2800.94 716.97 -1473.77 -38.0357332285 74.5066786853 33.2193611558 4.57897 0.261264 2.29239 4.58188 0.114903 2.30436 4.58434 -0.188871 2.29949 4.57701 0.176562 2.30046 -4.67876 5.44877 -5.21353 -4.52467 13.9322 -4.43348 -0.0 0.0 -0.0 -3.0488 7.94873 -4.47781 11.0881 -39.3783 62.6871 1.6316 -38.9437 0.576913 -15.5972 -0.802633 1.81954 0.0464545 -0.327813 0.172248 -0.0 0.0 -0.0 6.49619 -6.14269 -12.5718 -25.9334 3.54936 -66.9279 0.304701 8.58362 -0.0228668 56.3409 1.45921 6.76031 1.60205 -29.3234 -20.4561 0.0 0.0 0.0 -8.1476 -2.4424 6.76362 0.259986 -0.010793 -0.0384371 40.4094 2.68033 -4.89673 -29.666 0.0 0.0 -0.0 0.0 -0.0 39.2869 24.585 -4.47846 0.202617 0.00839611 0.0299597 -15.1946 -13.6461 -2.2864 -11.0807 0.0 0.0 0.0 0.0 0.0 
2769.6444044 719.677 -1486.34608428 -48.1680486122 75.7292055806 43.2931252218 4.53358 0.540798 2.31462 4.53647 0.392459 2.34432 4.5504 0.0798542 2.37558 4.54282 0.453928 2.3332 -2.02417 3.79555 -4.61074 -1.88091 10.5043 -4.36196 -0.0 0.0 -0.0 -3.594 7.63073 -5.51974 5.79702 -39.7077 63.0635 1.48834 -36.3983 0.489341 -16.5106 -0.864694 1.91865 0.279144 -0.929527 1.47628 -0.0 0.0 -0.0 6.80391 -6.17617 -13.1445 -24.5254 4.30027 -68.5529 0.253567 7.15957 -0.0158633 54.9093 1.34225 6.619 1.36057 -29.3861 -19.0786 0.0 0.0 0.0 -3.83614 -1.3766 6.1779 -9.37484 0.271005 1.41162 40.4273 4.49601 -4.89471 -30.689 0.0 0.0 -0.0 0.0 -0.0 38.8751 24.7035 -5.15524 0.0841819 0.00347577 0.0124509 -15.7739 -18.3715 -2.39982 -7.36079 0.0 0.0 0.0 0.0 0.0 
2769.97526988 719.677 -1487.1400295 -44.1709620471 74.7166436893 39.1595928836 4.53358 0.540798 2.31462 4.53647 0.392459 2.34432 4.5504 0.0798542 2.37558 4.54282 0.453928 2.3332 -2.02417 3.79555 -4.61074 -1.88091 10.5043 -4.36196 -0.0 0.0 -0.0 -3.594 7.63073 -5.51974 5.79702 -39.7077 63.0635 1.48834 -36.3983 0.489341 -16.5106 -0.864694 1.91865 0.279144 -0.929527 1.47628 -0.0 0.0 -0.0 6.80391 -6.17617 -13.1445 -24.5254 4.30027 -68.5529 0.253567 7.15957 -0.0158633 54.9093 1.34225 6.619 1.36057 -29.3861 -19.0786 0.0 0.0 0.0 -3.83614 -1.3766 6.1779 -9.37484 0.271005 1.41162 40.4273 4.49601 -4.89471 -30.689 0.0 0.0 -0.0 0.0 -0.0 38.8751 24.7035 -5.15524 0.0841819 0.00347577 0.0124509 -15.7739 -18.3715 -2.39982 -7.36079 0.0 0.0 0.0 0.0 0.0 
2753.61507951 723.279 -1491.28064821 -49.5044684994 75.7142775305 44.028238528 4.53136 0.616619 2.5711 4.53493 0.451821 2.6051 4.55285 0.104477 2.6419 4.54349 0.520262 2.5923 -1.89972 3.08193 -5.47644 -1.73364 9.90681 -5.38265 -0.0 0.0 -0.0 -4.15939 8.93329 -6.26606 3.84645 -40.2581 63.2613 1.60968 -38.5655 0.56319 -16.9478 -0.894951 1.96573 0.497788 -1.32095 2.7782 -0.0 0.0 -0.0 6.94862 -6.94328 -13.3944 -22.9773 6.07763 -68.954 0.252407 7.12716 -0.015719 54.2259 1.28767 6.55053 1.26561 -29.3261 -18.5194 0.0 0.0 0.0 -1.71977 -0.607867 6.21137 -14.8073 0.321341 2.24332 41.3962 5.60033 -4.97698 -30.6433 0.0 0.0 -0.0 0.0 -0.0 38.4202 24.7844 -4.57195 0.0606328 0.00250164 0.00896834 -17.3873 -19.3993 -2.65673 -4.24879 0.0 0.0 0.0 0.0 0.0 
2730.35179772 731.861 -1491.5364121 -57.8683295533 75.8148075549 51.6372431812 4.7844 0.638041 2.78899 4.78861 0.45935 2.8239 4.80784 0.0958403 2.85938 4.79685 0.546044 2.80844 0.606186 2.00511 -5.39268 0.76778 8.00837 -5.65916 -0.0 0.0 -0.0 -3.82628 9.48076 -5.55949 0.036071 -40.2012 63.4109 1.35749 -33.9175 0.413975 -17.2756 -0.91788 2.00088 0.512857 -0.967528 3.02613 -0.0 0.0 -0.0 7.08189 -6.72881 -13.6481 -21.1036 6.43974 -69.7541 0.23523 6.64664 -0.0136593 54.0026 1.27002 6.52802 1.3609 -29.5178 -19.1145 0.0 0.0 0.0 0.31368 0.904937 7.22799 -18.0025 0.314065 2.73345 40.6343 7.87339 -4.91889 -31.856 0.0 0.0 -0.0 0.0 -0.0 36.6459 24.9878 -3.39083 -0.387945 -0.0157796 -0.057443 -12.2637 -21.4085 -1.87935 0.465843 -0.0 -0.0 0.0 0.0 0.0 
2730.79930638 731.861 -1493.22823214 -53.4911458665 75.0375359098 47.1147904494 4.7844 0.638041 2.78899 4.78861 0.45935 2.8239 4.80784 0.0958403 2.85938 4.79685 0.546044 2.80844 0.606186 2.00511 -5.39268 0.76778 8.00837 -5.65916 -0.0 0.0 -0.0 -3.82628 9.48076 -5.55949 0.036071 -40.2012 63.4109 1.35749 -33.9175 0.413975 -17.2756 -0.91788 2.00088 0.512857 -0.967528 3.02613 -0.0 0.0 -0.0 7.08189 -6.72881 -13.6481 -21.1036 6.43974 -69.7541 0.23523 6.64664 -0.0136593 54.0026 1.27002 6.52802 1.3609 -29.5178 -19.1145 0.0 0.0 0.0 0.31368 0.904937 7.22799 -18.0025 0.314065 2.73345 40.6343 7.87339 -4.91889 -31.856 0.0 0.0 -0.0 0.0 -0.0 36.6459 24.9878 -3.39083 -0.387945 -0.0157796 -0.057443 -12.2637 -21.4085 -1.87935 0.465843 -0.0 -0.0 0.0 0.0 0.0 
